<?xml version="1.0" standalone="no"?>
<!DOCTYPE svg PUBLIC "-//W3C//DTD SVG 20010904//EN"
 "http://www.w3.org/TR/2001/REC-SVG-20010904/DTD/svg10.dtd">
<svg version="1.0" xmlns="http://www.w3.org/2000/svg"
 width="128.000000pt" height="128.000000pt" viewBox="0 0 128.000000 128.000000"
 preserveAspectRatio="xMidYMid meet">
<metadata>
Created by potrace 1.15, written by Peter Selinger 2001-2017
</metadata>
<g transform="translate(0.000000,128.000000) scale(0.100000,-0.100000)"
fill="#000000" stroke="none">
<path d="M502 1245 c-113 -25 -208 -79 -297 -169 -92 -93 -136 -167 -165 -282
-37 -144 -18 -304 52 -437 49 -94 174 -215 270 -261 182 -87 374 -87 556 0 60
29 95 55 157 118 92 93 136 167 165 282 37 144 18 304 -52 437 -49 94 -174
215 -270 261 -132 63 -277 81 -416 51z m78 -320 l0 -235 -230 0 -230 0 6 28
c30 135 68 208 148 287 69 68 156 118 242 139 33 8 60 15 62 15 1 1 2 -105 2
-234z m215 210 c73 -21 171 -82 227 -144 187 -204 180 -512 -16 -706 -208
-206 -524 -205 -734 1 -70 70 -127 176 -138 257 l-7 47 227 0 226 0 0 -140 0
-140 50 0 50 0 0 426 0 426 33 -7 c17 -3 55 -13 82 -20z"/>
</g>
</svg>
